<svg xmlns="http://www.w3.org/2000/svg" xmlns:xlink="http://www.w3.org/1999/xlink" width="732.81" height="732.809" viewBox="0 0 732.81 732.809">
  <defs>
    <clipPath id="clip-path">
      <rect id="Rectangle_1" data-name="Rectangle 1" width="732.81" height="732.809" transform="translate(11.085 11.086)" fill="none"/>
    </clipPath>
  </defs>
  <g id="check-svg" transform="translate(-11.085 -11.086)" clip-path="url(#clip-path)">
    <path id="Path_2" data-name="Path 2" d="M705.575,304.048c-12.767-15.613-25.959-31.761-33.018-48.76-7.427-17.922-9.718-39.336-11.917-60.048-3.233-30.375-6.3-59.087-24.056-76.843s-46.468-20.823-76.843-24.056c-20.712-2.2-42.126-4.49-60.048-11.917-17-7.058-33.147-20.25-48.76-33.036-23.04-18.827-46.874-38.3-73.443-38.3s-50.385,19.475-73.425,38.3c-15.612,12.786-31.76,25.978-48.778,33.036-17.921,7.427-39.335,9.718-60.029,11.917-30.394,3.233-59.087,6.3-76.843,24.056s-20.823,46.45-24.056,76.843c-2.218,20.712-4.49,42.126-11.936,60.048-7.04,17-20.25,33.147-33.017,48.76-18.828,23.039-38.321,46.874-38.321,73.443s19.493,50.385,38.321,73.425c12.767,15.613,25.977,31.761,33.017,48.778,7.446,17.922,9.718,39.336,11.936,60.029,3.233,30.394,6.3,59.088,24.056,76.843s46.449,20.823,76.843,24.056c20.694,2.218,42.108,4.491,60.029,11.918,17.018,7.058,33.166,20.269,48.778,33.036C327.105,724.4,350.921,743.9,377.49,743.9s50.4-19.492,73.443-38.319c15.613-12.767,31.761-25.978,48.76-33.036,17.922-7.427,39.336-9.7,60.048-11.918,30.375-3.233,59.087-6.3,76.843-24.056s20.823-46.449,24.056-76.843c2.2-20.693,4.49-42.107,11.917-60.029,7.059-17.017,20.251-33.165,33.018-48.778,18.846-23.04,38.32-46.856,38.32-73.425s-19.474-50.4-38.32-73.443M313.453,535.972,200.992,423.51l50.953-50.951,61.508,61.508L503.046,244.473,554,295.427Z" fill="#f9590c"/>
  </g>
</svg>
