<svg xmlns="http://www.w3.org/2000/svg" width="312.183" height="320.736" viewBox="0 0 312.183 320.736">
  <g id="damage" transform="translate(-0.015 -0.016)">
    <path id="Path_34" data-name="Path 34" d="M213.376,305.05a26.043,26.043,0,0,1-11.874-2.637c-2.315-1.246-5.814-.274-7.693.247a11.814,11.814,0,0,1-2.052.454c-10.05.952-14.748-4.524-19.726-10.309-1.582-1.84-3.218-3.741-5.2-5.725L7.672,127.918a26.213,26.213,0,0,1,0-37.029h0L90.889,7.672a26.215,26.215,0,0,1,37.029,0L304.529,184.28a26.183,26.183,0,0,1,.014,37.015l-.025.025-74.205,74.209a18.534,18.534,0,0,0-1.869,2.213c-2.281,3.022-4.443,5.294-11.516,7.025a17.706,17.706,0,0,1-3.552.283M198.686,293.8a13.8,13.8,0,0,1,6.608,1.567c3.376,1.819,8.663,1.785,9.8,1.611,4.791-1.18,5.564-2.2,6.964-4.058a26.071,26.071,0,0,1,2.618-3.07l74.194-74.2v0a18.181,18.181,0,0,0,0-25.713L122.262,13.329a18.2,18.2,0,0,0-25.717,0L13.329,96.545a18.2,18.2,0,0,0,0,25.715L172.487,281.424c2.2,2.194,4.009,4.3,5.609,6.163,4.935,5.737,7.184,8.067,12.805,7.571.2-.044.457-.12.766-.206a25.971,25.971,0,0,1,7.019-1.151" fill="#313131"/>
    <path id="Path_35" data-name="Path 35" d="M56.84,71.78a4,4,0,0,1-2.828-6.829l10.94-10.939a4,4,0,1,1,5.656,5.658L59.668,70.609A3.991,3.991,0,0,1,56.84,71.78" fill="#313131"/>
    <path id="Path_36" data-name="Path 36" d="M234.285,277.192a4,4,0,0,1-2.829-6.828l38.908-38.906a4,4,0,0,1,5.657,5.656L237.114,276.02a3.992,3.992,0,0,1-2.829,1.172" fill="#313131"/>
    <path id="Path_37" data-name="Path 37" d="M15.167,133.759a4,4,0,0,1-2.829-6.829L125.357,13.912a4,4,0,1,1,5.658,5.658L18,132.588a4,4,0,0,1-2.829,1.171" fill="#313131"/>
    <path id="Path_38" data-name="Path 38" d="M201.121,302.066a4,4,0,0,1-3.375-1.848l-25.517-39.944a4,4,0,0,1,.659-5.093l37.926-35.009-48.33-32.42a4,4,0,0,1-1.176-5.421l26.271-42.612a4,4,0,0,1,6.81,4.2l-24.251,39.335,49.342,33.1a4,4,0,0,1,.484,6.261l-39.19,36.176,23.714,37.123a4,4,0,0,1-3.367,6.154" fill="#313131"/>
    <path id="Path_39" data-name="Path 39" d="M198.412,241.067a4,4,0,0,1-1.523-.3l-21.206-8.742a4.02,4.02,0,0,1-1.246-.812l-15.144-14.539-18.67-3.312a4,4,0,0,1,1.4-7.877l19.865,3.524a4,4,0,0,1,2.071,1.053l15.475,14.855,20.506,8.454a4,4,0,0,1-1.526,7.7" fill="#313131"/>
    <path id="Path_40" data-name="Path 40" d="M178.788,165.6a3.98,3.98,0,0,1-2.474-.859l-25.09-19.783a4,4,0,0,1-1.254-4.585l6.445-16.659L132.3,112.78a4,4,0,1,1,3.3-7.286l27.554,12.495a4,4,0,0,1,2.079,5.086l-6.744,17.43,22.771,17.954a4,4,0,0,1-2.479,7.141" fill="#313131"/>
    <path id="Path_41" data-name="Path 41" d="M193.708,207.882a4,4,0,0,1-3.682-5.56l9.448-22.334a4,4,0,0,1,3.328-2.425l35.885-3.2a4,4,0,0,1,.71,7.969l-33.491,2.987-8.512,20.122a4,4,0,0,1-3.686,2.442" fill="#313131"/>
    <path id="Path_42" data-name="Path 42" d="M152.264,121.44a4.057,4.057,0,0,1-.655-.054,4,4,0,0,1-3.3-4.6l4.114-24.962a4,4,0,1,1,7.893,1.3l-4.113,24.962a4,4,0,0,1-3.942,3.35" fill="#313131"/>
    <path id="Path_43" data-name="Path 43" d="M245.771,320.752H154.315a4,4,0,0,1,0-8h91.456a4,4,0,1,1,0,8" fill="#313131"/>
  </g>
</svg>
