<svg xmlns="http://www.w3.org/2000/svg" width="362.543" height="217.748" viewBox="0 0 362.543 217.748">
  <g id="Group_16" data-name="Group 16" transform="translate(0 0)">
    <path id="Path_15" data-name="Path 15" d="M335.282,88.159a40.928,40.928,0,0,0-49.453,18.5.615.615,0,0,1-.656.2l-52.59-14.641a11.593,11.593,0,0,0-13.764,15.734l1.056,2.464-8.058,1.117a12.024,12.024,0,0,0-10.013,14.95l.24.926L216.516,152.7a11.545,11.545,0,0,0,6.951,5.408l44.026,12.254a.6.6,0,0,1,.463.5,41,41,0,1,0,79.64-12.409,41.013,41.013,0,0,0-12.314-70.295m12.167,44.374a26.211,26.211,0,0,1-9.976,15.491,12.013,12.013,0,0,0-3.945,14.093,26.537,26.537,0,1,1-51.119,9.177l0-.034a14.991,14.991,0,0,0-11.039-14.827l-42.9-11.939-10.959-19.152,7.473-1.036a12.019,12.019,0,0,0,9.471-16.55l46.83,13.037a15.01,15.01,0,0,0,17.133-7.032,26.508,26.508,0,0,1,32.028-11.973,26.875,26.875,0,0,1,17,30.745"/>
    <path id="Path_16" data-name="Path 16" d="M174.253,118.784l-13.3-5.552,5.289-5.377a12.017,12.017,0,0,0-2.686-18.949l-11.228-6.284a11.533,11.533,0,0,0-10.006-.629L74.9,109.256a.584.584,0,0,1-.65-.115,41,41,0,1,0-55.575,58.4,41,41,0,1,0,80.541,3.339.572.572,0,0,1,.394-.514l74.529-30.138a11.59,11.59,0,0,0,.115-21.442M94.19,156.96A14.942,14.942,0,0,0,84.9,172.954a26.508,26.508,0,0,1-18.1,29.03l0,0a26.846,26.846,0,0,1-32.2-13.994,26.193,26.193,0,0,1-1.551-18.314,12.152,12.152,0,0,0-5.526-13.664A26.22,26.22,0,0,1,15.9,141.763a26.537,26.537,0,0,1,25.125-35.158,26.458,26.458,0,0,1,21.494,10.986,14.95,14.95,0,0,0,17.8,5.071l66.148-26.749,7.249,4.055-5.708,5.8a12.027,12.027,0,0,0,1.183,17.953l.757.588,12.3,5.131Z"/>
    <path id="Path_17" data-name="Path 17" d="M121.454,38.409l39.423,28.7c7.531,5.483,14.754-7.056,7.3-12.485l-39.421-28.7c-7.531-5.483-14.753,7.056-7.3,12.485"/>
    <path id="Path_18" data-name="Path 18" d="M217.572,67.108q19.708-14.351,39.421-28.7c7.45-5.422.242-17.974-7.3-12.485q-19.709,14.351-39.421,28.7c-7.448,5.424-.242,17.973,7.3,12.485"/>
    <path id="Path_19" data-name="Path 19" d="M181.993,6.983V54.366c0,9.3,14.46,9.317,14.46,0V6.983c0-9.3-14.46-9.317-14.46,0"/>
  </g>
</svg>
