<svg xmlns="http://www.w3.org/2000/svg" width="64.11" height="88.365" viewBox="0 0 64.11 88.365">
  <g id="situations" transform="translate(0 0)">
    <path id="Path_13" data-name="Path 13" d="M62.118,42.351C59.2,33.412,54.329,27.112,46.654,17.8A1.77,1.77,0,0,0,43.518,19c.185,4.57-.273,9.211-4.178,12.84C41.143,18.226,34.606,8.45,27.786.609a1.77,1.77,0,0,0-3.08,1.468c1.024,5.838.771,10.468-3.5,18.2a120.441,120.441,0,0,1-9.756,13.975c-1.27,1.652-2.47,3.211-3.522,4.646C-2.478,53.1-2.651,68.214,7.469,79.321c3.7,4.059,8.738,6.741,15.858,8.439a1.771,1.771,0,0,0,.821-3.445c-6.483-1.547-10.82-3.822-14.061-7.38-8.9-9.765-8.636-23.2.7-35.938,1.027-1.4,2.215-2.946,3.472-4.58a122.774,122.774,0,0,0,10.05-14.425c3.019-5.473,4.391-9.791,4.428-14.6,5.431,7.273,9.18,15.809,6.474,27.357a1.746,1.746,0,0,0-.024.685,1.769,1.769,0,0,0,2.6,1.823,16.9,16.9,0,0,0,9.156-13.5c5.69,7.071,9.469,12.543,11.8,19.689,2.09,6.4,2.408,15.275.756,21.1-2.691,9.5-10.158,16.728-21.024,20.365a1.771,1.771,0,1,0,1.124,3.358c12.01-4.019,20.288-12.1,23.308-22.757,1.852-6.531,1.524-16.057-.8-23.165"/>
    <path id="Path_14" data-name="Path 14" d="M28.128,39.426a23.941,23.941,0,0,0,2.551,7.688,35.175,35.175,0,0,0,6.067,7.344c2.478,2.5,4.818,4.858,6.05,7.764,1.978,4.666.645,10.717-3.317,15.058A1.771,1.771,0,0,0,42.1,79.667c4.879-5.344,6.471-12.91,3.962-18.827-1.5-3.534-4.192-6.25-6.8-8.876a32.1,32.1,0,0,1-5.491-6.58c-2.011-3.593-2.417-7.865-2.811-12a1.77,1.77,0,0,0-3.329-.658c-.3.562-.59,1.1-.878,1.635-1.555,2.871-3.024,5.583-3.6,9.178a26.55,26.55,0,0,0-.172,7.654A16.556,16.556,0,0,1,20.585,45.3a1.771,1.771,0,0,0-3.4-.095,36.725,36.725,0,0,0-1.834,15.975c1.141,8.8,7.057,16.11,16.23,20.049a1.771,1.771,0,0,0,1.4-3.254c-7.994-3.433-13.138-9.72-14.114-17.251a29.046,29.046,0,0,1,.308-8.928,11.143,11.143,0,0,0,5.607,5.086,1.771,1.771,0,0,0,2.433-2A26.234,26.234,0,0,1,26.645,44.1a17.731,17.731,0,0,1,1.483-4.678"/>
  </g>
</svg>
