<svg xmlns="http://www.w3.org/2000/svg" width="463.729" height="509.369" viewBox="0 0 463.729 509.369">
  <g id="stolen" transform="translate(0 0)">
    <path id="Path_28" data-name="Path 28" d="M392.785,58.785a7.622,7.622,0,0,1-7.622-7.622V28.081a7.622,7.622,0,0,1,15.244,0V51.163a7.622,7.622,0,0,1-7.622,7.622"/>
    <path id="Path_29" data-name="Path 29" d="M456.107,102.02H433.026a7.622,7.622,0,1,1,0-15.244h23.081a7.622,7.622,0,1,1,0,15.244"/>
    <path id="Path_30" data-name="Path 30" d="M202.4,301.651a7.6,7.6,0,0,1-5.28-2.125L134.7,239.557a7.622,7.622,0,1,1,10.56-10.993l57.1,54.854,81.8-79.9a7.622,7.622,0,0,1,10.652,10.9l-87.084,85.057a7.6,7.6,0,0,1-5.326,2.169"/>
    <path id="Path_31" data-name="Path 31" d="M423.585,71.221a7.622,7.622,0,0,1-5.39-13.012l17.739-17.737a7.622,7.622,0,0,1,10.779,10.779L428.975,68.989a7.6,7.6,0,0,1-5.39,2.232"/>
    <path id="Path_32" data-name="Path 32" d="M202.093,509.369a7.62,7.62,0,0,1-4.194-1.258L178.465,495.3c-2.284-1.505-23.007-15.174-47.6-31.634A7.622,7.622,0,1,1,139.34,451c24.553,16.431,45.237,30.074,47.514,31.575l15.239,10.045,15.239-10.045c9.9-6.53,97.343-64.263,127.266-86.374,27.767-20.522,44.344-57.212,44.344-98.146V95.736C283.749,72.639,219.4,29.607,202.092,16.919c-17.3,12.69-81.656,55.721-186.848,78.817V298.053c0,40.934,16.577,77.624,44.344,98.146,7.332,5.418,18.853,13.51,34.246,24.049a7.622,7.622,0,1,1-8.614,12.578c-15.542-10.642-27.214-18.841-34.693-24.368C18.888,385.074,0,343.8,0,298.053V91.2A9.68,9.68,0,0,1,7.644,81.78C124.155,57.1,189.64,7.449,196.723,1.869a8.644,8.644,0,0,1,10.749.009c7.073,5.571,72.557,55.217,189.068,79.9a9.679,9.679,0,0,1,7.646,9.416V298.053c0,45.749-18.888,87.021-50.527,110.4-30.241,22.347-118,80.288-127.9,86.821l-19.466,12.832a7.626,7.626,0,0,1-4.2,1.258M198.028,13.845l.019.014-.019-.014"/>
    <path id="Path_33" data-name="Path 33" d="M202.09,464.955A7.611,7.611,0,0,1,197.9,463.7C165.086,442.065,96.67,396.449,72.562,378.637,50.344,362.215,37.08,332.09,37.08,298.052V120.523a9.637,9.637,0,0,1,7.206-9.311c71.846-18.788,122.954-45.6,153.176-64.777a8.559,8.559,0,0,1,9.267,0c30.217,19.178,81.322,45.986,153.172,64.775a9.636,9.636,0,0,1,7.206,9.311V170.26a7.622,7.622,0,1,1-15.244,0V124.851c-68.872-18.5-118.877-44.142-149.769-63.325-30.9,19.19-80.907,44.828-149.769,63.326v173.2c0,29.223,10.952,54.766,29.3,68.326,22.871,16.9,86.459,59.358,120.468,81.821,18.847-12.457,94.075-62.316,120.468-81.819,18.351-13.564,29.306-39.108,29.306-68.328V242.868a7.622,7.622,0,1,1,15.244,0v55.184c0,34.034-13.267,64.161-35.488,80.587-29.954,22.135-121.453,82.5-125.332,85.057a7.622,7.622,0,0,1-4.2,1.259M205.641,59.3l-.017.011.017-.011"/>
  </g>
</svg>
