<svg xmlns="http://www.w3.org/2000/svg" width="296.876" height="297.6" viewBox="0 0 296.876 297.6">
  <g id="tree" transform="translate(0)">
    <path id="Path_44" data-name="Path 44" d="M33.316,297.6H5.652c-7.5,0-7.573-11.708,0-11.708H33.315c7.567,0,7.559,11.708,0,11.708" fill="#1d1d1b"/>
    <path id="Path_45" data-name="Path 45" d="M291.212,285.89H278.749V220.2a16.918,16.918,0,0,0-33.836,0v5.961h-14.4v-8c0-9.166-7.821-16.606-16.879-16.789a16.932,16.932,0,0,0-16.956,16.789v8h-14.4V220.2c0-9.1-7.781-16.681-16.813-16.806A16.976,16.976,0,0,0,148.438,220.2V285.89h-14.08V160.8L162.3,124.388c4.567-5.957-4.66-13.149-9.293-7.127l-29.149,38a5.884,5.884,0,0,0-1.207,3.564V285.89H112.229V92.836c0-7.417-11.707-7.588-11.707,0v36.259L69.045,106.238c-6.062-4.4-13,5.035-6.878,9.477,0,0,37.77,27.291,38.355,27.476v27.635a51.745,51.745,0,0,1-27.755,7.825c-26.571,0-48.185-19.166-48.185-42.726,0-18.79,14.213-35.614,34.563-40.9a5.938,5.938,0,0,0,4.144-7.317,59.467,59.467,0,0,1-2.368-16.793c0-32.642,25.678-59.2,57.243-59.2,31.591,0,57.291,26.562,57.291,59.2a60.4,60.4,0,0,1-1.142,11.792,62.544,62.544,0,0,0-27.587,2.564c-6.894,2.283-3.441,13.44,3.686,11.114a50.8,50.8,0,0,1,29.019-.74c19.166,5.855,32.364,22.133,32.364,40.282,0,23.56-21.615,42.726-48.186,42.726a53.566,53.566,0,0,1-15.567-2.287c-7.04-2.137-10.668,8.995-3.4,11.205a65.157,65.157,0,0,0,18.968,2.792c33.028,0,59.893-24.419,59.893-54.436,0-22.381-15.271-42.449-37.783-50.53a72.316,72.316,0,0,0,1.446-14.482c0-39.1-30.953-70.913-69-70.913C80.146,0,49.212,31.814,49.212,70.913A72.146,72.146,0,0,0,50.661,85.4c-22.514,8.12-37.786,28.187-37.786,50.523,0,30.017,26.865,54.436,59.892,54.436a64.061,64.061,0,0,0,27.755-6.182V285.89H65.606c-7.554,0-7.56,11.71,0,11.71h225.6c7.535,0,7.572-11.71,0-11.71m-120.645,0H160.145V220.2c0-6.4,10.422-6.673,10.422,0Zm26.109,0h-14.4V272.3h14.4Zm0-25.3h-14.4V237.863h14.4Zm22.129,25.3H208.382V218.161c0-6.5,10.423-6.664,10.423,0Zm26.108,0h-14.4V272.3h14.4Zm0-25.3h-14.4V237.863h14.4Zm22.129,25.3H256.619V220.2c0-6.54,10.423-6.66,10.423,0Z" fill="#1d1d1b"/>
  </g>
</svg>
