<svg xmlns="http://www.w3.org/2000/svg" width="58" height="53" viewBox="0 0 58 53">
  <g id="water-damage" transform="translate(0 0)">
    <path id="Path_23" data-name="Path 23" d="M5,29H22a3.009,3.009,0,0,1,3-3h6a3.009,3.009,0,0,1,3,3h8a1,1,0,0,0,1-1V21a3.009,3.009,0,0,1-3-3V12a3.009,3.009,0,0,1,3-3V3a1,1,0,0,1,1-1H58a1,1,0,0,1,1,1V9a3.009,3.009,0,0,1,3,3v6a3.009,3.009,0,0,1-3,3V34A11.007,11.007,0,0,1,48,45H34a3.009,3.009,0,0,1-3,3H25a3.009,3.009,0,0,1-3-3H5a1,1,0,0,1-1-1V30A1,1,0,0,1,5,29ZM57,4H45V9H57Zm2,15a1,1,0,0,0,1-1V12a1,1,0,0,0-1-1H43a1,1,0,0,0-1,1v6a1,1,0,0,0,1,1ZM34,43H47V41.41l-3-3-1.29,1.3-1.42-1.42L42.59,37l-1.3-1.29,1.42-1.42L47,38.59l2.29-2.3,1.42,1.42L48.41,40l.3.29A1.033,1.033,0,0,1,49,41v1.94A9.016,9.016,0,0,0,57,34V21H45v7a3.009,3.009,0,0,1-3,3H34ZM24,45a1,1,0,0,0,1,1h6a1,1,0,0,0,1-1V29a1,1,0,0,0-1-1H25a1,1,0,0,0-1,1ZM6,43H22V31H6Z" transform="translate(-4 -2)"/>
    <path id="Path_24" data-name="Path 24" d="M22.823,47.432C23.478,48.38,25,50.722,25,52a3,3,0,0,1-6,0c0-1.278,1.522-3.62,2.177-4.568a1.038,1.038,0,0,1,1.646,0ZM22,53a1,1,0,0,0,1-1,7.457,7.457,0,0,0-1-2.147A7.462,7.462,0,0,0,21,52,1,1,0,0,0,22,53Z" transform="translate(18 -2)"/>
    <path id="Path_26" data-name="Path 26" d="M48,39H46v2h2Z" transform="translate(-32 -2)"/>
    <path id="Path_27" data-name="Path 27" d="M54,39H50v2h4Z" transform="translate(-42 -2)"/>
  </g>
</svg>
