<svg width="1920" height="1488" viewBox="0 0 1920 1488" fill="none" xmlns="http://www.w3.org/2000/svg">
<mask id="mask0_147_1428" style="mask-type:alpha" maskUnits="userSpaceOnUse" x="-23" y="-26" width="2121" height="1514">
<path fill-rule="evenodd" clip-rule="evenodd" d="M2052.5 836.85C2052.5 606.04 1894.12 413.207 1676.29 335.225V335.041C1468.74 260.781 1356.02 158.099 1261.67 72.1484C1221.02 35.1249 1183.79 1.20577 1143.85 -26L2098 -26V1132.5C2005.17 1247.5 1694.4 1479.5 1194 1487.5C693.6 1495.5 188.833 1254.17 -1 1132.5H-23V-26H710.928C609.159 40.0722 542.5 150.239 542.5 274.941C542.5 743.383 982.762 1370 1483.02 1370C1797.57 1370 2052.5 1131.26 2052.5 836.85Z" fill="#FF9000"/>
</mask>
<g mask="url(#mask0_147_1428)">
<rect width="1920" height="1488" fill="#ff8605"/>
</g>
</svg>
