<svg id="Group_3" data-name="Group 3" xmlns="http://www.w3.org/2000/svg" width="100" height="25" viewBox="0 0 100 20">
  <g id="mdi:star">
    <rect id="ViewBox" width="20" height="25" fill="none"/>
    <path id="Path" d="M8.333,12.725l5.15,3.108L12.117,9.975l4.55-3.942-5.992-.517L8.333,0,5.992,5.517,0,6.033,4.542,9.975,3.183,15.833Z" transform="translate(1.667 1.667)" fill="#000000"/>
  </g>
  <g id="mdi:star-2" data-name="mdi:star" transform="translate(20)">
    <rect id="ViewBox-2" data-name="ViewBox" width="20" height="25" fill="none"/>
    <path id="Path-2" data-name="Path" d="M8.333,12.725l5.15,3.108L12.117,9.975l4.55-3.942-5.992-.517L8.333,0,5.992,5.517,0,6.033,4.542,9.975,3.183,15.833Z" transform="translate(1.667 1.667)" fill="#000000"/>
  </g>
  <g id="mdi:star-3" data-name="mdi:star" transform="translate(40)">
    <rect id="ViewBox-3" data-name="ViewBox" width="20" height="25" fill="none"/>
    <path id="Path-3" data-name="Path" d="M8.333,12.725l5.15,3.108L12.117,9.975l4.55-3.942-5.992-.517L8.333,0,5.992,5.517,0,6.033,4.542,9.975,3.183,15.833Z" transform="translate(1.667 1.667)" fill="#000000"/>
  </g>
  <g id="mdi:star-4" data-name="mdi:star" transform="translate(60)">
    <rect id="ViewBox-4" data-name="ViewBox" width="20" height="25" fill="none"/>
    <path id="Path-4" data-name="Path" d="M8.333,12.725l5.15,3.108L12.117,9.975l4.55-3.942-5.992-.517L8.333,0,5.992,5.517,0,6.033,4.542,9.975,3.183,15.833Z" transform="translate(1.667 1.667)" fill="#000000"/>
  </g>
  <g id="mdi:star-5" data-name="mdi:star" transform="translate(80)">
    <rect id="ViewBox-5" data-name="ViewBox" width="20" height="25" fill="none"/>
    <path id="Path-5" data-name="Path" d="M8.333,12.725l5.15,3.108L12.117,9.975l4.55-3.942-5.992-.517L8.333,0,5.992,5.517,0,6.033,4.542,9.975,3.183,15.833Z" transform="translate(1.667 1.667)" fill="#000000"/>
  </g>
</svg>
